# Wavefront Obj file
# 
# verts: 37 uv-s: 102
mtllib sword1.mtl

g sword

v 0.000000 15.101000 0.800200
v 0.000000 42.570999 0.800200
v -3.129900 44.465599 0.000000
v -3.129900 15.101000 0.000000
v 0.000000 15.101000 -0.800200
v 0.000000 42.570999 -0.800200
v 3.129900 44.465599 0.000000
v 3.129900 15.101000 0.000000
v 0.000000 44.465599 0.000000
v 0.000000 15.335200 -0.806600
v 0.000000 15.335200 0.806600
v 3.129900 15.335200 0.806600
v 3.129900 15.335200 -0.806600
v -3.129900 15.335200 0.806600
v -3.129900 15.335200 -0.806600
v -3.129900 13.144000 -0.806600
v -3.129900 13.144000 0.806600
v 0.000000 13.144000 -0.806600
v 3.129900 13.144000 0.806600
v 3.129900 13.144000 -0.806600
v 0.000000 13.144000 0.806600
v 0.000000 13.340600 0.659600
v 0.000000 2.301000 0.659600
v 0.659600 2.301000 0.000000
v 0.659600 13.340600 0.000000
v -0.659600 13.340600 0.000000
v -0.659600 2.301000 0.000000
v 0.000000 13.340600 -0.659600
v 0.000000 2.301000 -0.659600
v 1.227500 0.000000 0.000000
v 0.000000 0.000000 1.227500
v 0.000000 0.000000 -1.227500
v 1.227500 2.494800 0.000000
v 0.000000 2.494800 1.227500
v -1.227500 0.000000 0.000000
v -1.227500 2.494800 0.000000
v 0.000000 2.494800 -1.227500
# 37 positions

vt 0.990000 0.990000
vt 0.078179 0.990000
vt 0.015291 0.882766
vt 0.990000 0.882766
vt 0.990000 0.990000
vt 0.078179 0.990000
vt 0.015291 0.882766
vt 0.990000 0.882766
vt 0.010000 0.986524
vt 0.990000 0.882766
vt 0.015291 0.882766
vt 0.078179 0.990000
vt 0.990000 0.990000
vt 0.990000 0.882766
vt 0.015291 0.882766
vt 0.078179 0.990000
vt 0.990000 0.990000
vt 0.113892 0.773759
vt 0.113892 0.827307
vt 0.010000 0.827307
vt 0.010000 0.773759
vt 0.208848 0.761024
vt 0.208848 0.707476
vt 0.281581 0.707476
vt 0.281581 0.761024
vt 0.124488 0.723415
vt 0.197222 0.723415
vt 0.197222 0.827307
vt 0.124488 0.827307
vt 0.208848 0.761024
vt 0.208848 0.707476
vt 0.281581 0.707476
vt 0.281581 0.761024
vt 0.124488 0.723415
vt 0.197222 0.723415
vt 0.197222 0.827307
vt 0.124488 0.827307
vt 0.208848 0.827307
vt 0.208848 0.773759
vt 0.312739 0.773759
vt 0.312739 0.827307
vt 0.010000 0.838523
vt 0.376441 0.838523
vt 0.376441 0.869486
vt 0.010000 0.869486
vt 0.010000 0.838523
vt 0.376441 0.838523
vt 0.376441 0.869486
vt 0.010000 0.869486
vt 0.010000 0.838523
vt 0.376441 0.838523
vt 0.376441 0.869486
vt 0.010000 0.869486
vt 0.010000 0.838523
vt 0.376441 0.838523
vt 0.376441 0.869486
vt 0.010000 0.869486
vt 0.079295 0.691350
vt 0.136917 0.691350
vt 0.079295 0.748973
vt 0.067622 0.761024
vt 0.010000 0.761024
vt 0.010000 0.678213
vt 0.067622 0.678213
vt 0.067622 0.761024
vt 0.010000 0.761024
vt 0.010000 0.678213
vt 0.067622 0.678213
vt 0.067622 0.761024
vt 0.010000 0.761024
vt 0.010000 0.678213
vt 0.067622 0.678213
vt 0.067622 0.761024
vt 0.010000 0.761024
vt 0.010000 0.678213
vt 0.067622 0.678213
vt 0.327926 0.733908
vt 0.287181 0.693163
vt 0.327926 0.652418
vt 0.327926 0.733908
vt 0.287181 0.693163
vt 0.327926 0.652418
vt 0.136917 0.691350
vt 0.079295 0.691350
vt 0.079295 0.748973
vt 0.010000 0.986524
vt 0.113892 0.773759
vt 0.113892 0.827307
vt 0.010000 0.827307
vt 0.010000 0.773759
vt 0.124488 0.723415
vt 0.197222 0.723415
vt 0.197222 0.827307
vt 0.124488 0.827307
vt 0.124488 0.723415
vt 0.197222 0.723415
vt 0.197222 0.827307
vt 0.124488 0.827307
vt 0.208848 0.827307
vt 0.208848 0.773759
vt 0.312739 0.773759
vt 0.312739 0.827307
# 102 texture coordinates

vn 0.000000 0.000000 1.000000
vn 0.000000 0.201629 0.979462
vn -0.537031 0.843563 0.000000
vn -1.000000 0.000000 0.000000
vn 0.000000 0.000000 -1.000000
vn 0.000000 0.201629 -0.979462
vn 0.537031 0.843563 -0.000000
vn 1.000000 0.000000 0.000000
vn 0.000000 1.000000 0.000000
vn 0.000000 0.707107 -0.707107
vn 0.000000 0.707107 0.707107
vn 0.577350 0.577350 0.577350
vn 0.577350 0.577350 -0.577350
vn -0.577350 0.577350 0.577350
vn -0.577350 0.577350 -0.577350
vn -0.577350 -0.577350 -0.577350
vn -0.577350 -0.577350 0.577350
vn 0.000000 -0.707107 -0.707107
vn 0.577350 -0.577350 0.577350
vn 0.577350 -0.577350 -0.577350
vn 0.000000 -0.707107 0.707107
vn 0.000000 0.000000 1.000000
vn 0.000000 0.000000 1.000000
vn 1.000000 0.000000 0.000000
vn 1.000000 0.000000 0.000000
vn -1.000000 0.000000 0.000000
vn -1.000000 0.000000 0.000000
vn 0.000000 0.000000 -1.000000
vn 0.000000 0.000000 -1.000000
vn 0.816497 -0.577350 0.000000
vn 0.000000 -0.816497 0.577350
vn 0.000000 -0.816497 -0.577350
vn 0.816497 0.577350 0.000000
vn 0.000000 0.816497 0.577350
vn -0.816497 -0.577350 0.000000
vn -0.816497 0.577350 0.000000
vn 0.000000 0.816497 -0.577350
# 37 normals

usemtl default
f 1/1/1 2/2/2 3/3/3 4/4/4
f 5/5/5 6/6/6 7/7/7 8/8/8
f 7/7/7 6/6/6 9/9/9
f 8/10/8 7/11/7 2/12/2 1/13/1
f 4/14/4 3/15/3 6/16/6 5/17/5
f 3/3/3 2/2/2 9/9/9
f 10/18/10 11/19/11 12/20/12 13/21/13
f 14/22/14 15/23/15 16/24/16 17/25/17
f 10/26/10 18/27/18 16/28/16 15/29/15
f 13/30/13 12/31/12 19/32/19 20/33/20
f 11/34/11 21/35/21 19/36/19 12/37/12
f 18/38/18 21/39/21 17/40/17 16/41/16
f 22/42/22 23/43/23 24/44/24 25/45/25
f 26/46/26 27/47/27 23/48/23 22/49/22
f 28/50/28 29/51/29 27/52/27 26/53/26
f 25/54/25 24/55/24 29/56/29 28/57/28
f 30/58/30 31/59/31 32/60/32
f 31/61/31 30/62/30 33/63/33 34/64/34
f 35/65/35 31/66/31 34/67/34 36/68/36
f 32/69/32 35/70/35 36/71/36 37/72/37
f 30/73/30 32/74/32 37/75/37 33/76/33
f 37/77/37 36/78/36 34/79/34
f 34/80/34 33/81/33 37/82/37
f 31/83/31 35/84/35 32/85/32
f 6/16/6 3/15/3 9/86/9
f 2/12/2 7/11/7 9/86/9
f 15/87/15 14/88/14 11/89/11 10/90/10
f 13/91/13 20/92/20 18/93/18 10/94/10
f 14/95/14 17/96/17 21/97/21 11/98/11
f 20/99/20 19/100/19 21/101/21 18/102/18

# 30 faces
