# Wavefront Obj file
# 
# verts: 81 uv-s: 122
mtllib pillar.mtl

g pillar

v 9.012000 0.000000 9.012000
v 7.458800 75.000000 7.458800
v -7.458800 75.000000 7.458800
v -9.012000 0.000000 9.012000
v 9.012000 0.000000 -9.012000
v 7.458800 75.000000 -7.458800
v -9.012000 0.000000 -9.012000
v -7.458800 75.000000 -7.458800
v 0.000000 90.000000 0.000000
v 10.204600 0.000000 7.944500
v 9.508900 19.677999 7.248800
v 8.114500 19.677999 7.248800
v 7.418800 0.000000 7.944500
v 10.204600 0.000000 -3.214700
v 9.508900 19.677999 -2.519000
v 7.418800 0.000000 -3.214700
v 8.114500 19.677999 -2.519000
v 11.962100 0.000000 3.254800
v 10.729600 8.434700 2.559100
v 4.644600 8.434700 2.559100
v 3.949000 0.000000 3.254800
v 11.962100 0.000000 -12.928600
v 10.729600 8.434700 -11.220800
v 3.949000 0.000000 -12.928600
v 4.644600 8.434700 -11.220800
v -11.405800 0.000000 -6.519000
v -10.514100 5.340600 -6.963200
v -10.514100 5.340600 -11.127700
v -11.405800 0.000000 -11.993300
v 5.558500 0.000000 -6.519000
v 4.862800 5.340600 -6.963200
v 4.862800 5.340600 -11.127700
v 5.558500 0.000000 -11.993300
v -6.799900 0.000000 -7.541900
v -6.104200 28.021200 -7.941000
v -6.104200 28.021200 -9.422500
v -6.799900 0.000000 -10.414800
v 6.484100 0.000000 -10.414800
v 5.788400 28.021200 -9.422500
v 5.788400 28.021200 -7.941000
v 6.484100 0.000000 -7.541900
v 13.007000 0.000000 5.584200
v 12.165500 4.015200 4.888500
v 9.409700 4.015200 4.888500
v 8.714000 0.000000 5.584200
v 13.007000 0.000000 -8.749200
v 12.165500 4.015200 -8.053500
v 8.714000 0.000000 -8.749200
v 9.409700 4.015200 -8.053500
v -6.266000 0.000000 5.715100
v -6.267200 8.434700 5.019500
v -9.517500 8.434700 5.019500
v -10.018200 0.000000 5.715100
v -10.018200 0.000000 -10.180000
v -9.517500 8.434700 -9.484300
v -6.267200 8.434700 -9.484300
v -6.266000 0.000000 -10.180000
v -10.864400 0.000000 10.398600
v -9.275900 23.512899 9.550400
v -9.275900 23.512899 3.897900
v -10.864400 0.000000 4.196500
v 3.025900 0.000000 10.398600
v 2.330200 23.512899 9.550400
v 3.025900 0.000000 4.196500
v 2.330200 23.512899 3.897900
v 7.283200 0.000000 1.998700
v 6.391400 3.133700 2.442900
v 6.391400 3.133700 10.929000
v 7.283200 0.000000 11.794600
v -11.979200 0.000000 1.998700
v -11.283500 3.133700 2.442900
v -11.979200 0.000000 11.794600
v -11.283500 3.133700 10.929000
v -3.903700 0.000000 9.634900
v -3.208000 38.269600 8.939200
v -3.208000 38.269600 7.672600
v -3.903700 0.000000 6.976900
v 5.359500 0.000000 9.634900
v 4.663800 38.269600 8.939200
v 5.359500 0.000000 6.976900
v 4.663800 38.269600 7.672600
# 81 positions

vt 0.010000 0.990000
vt 0.023460 0.339906
vt 0.152737 0.339906
vt 0.166197 0.990000
vt 0.320512 0.339906
vt 0.307052 0.990000
vt 0.177775 0.990000
vt 0.164315 0.339906
vt 0.318630 0.990000
vt 0.332090 0.339906
vt 0.461367 0.339906
vt 0.474827 0.990000
vt 0.482965 0.990000
vt 0.496425 0.339906
vt 0.625702 0.339906
vt 0.639162 0.990000
vt 0.829815 0.372626
vt 0.947914 0.320042
vt 0.947914 0.478957
vt 0.829815 0.372626
vt 0.947914 0.320042
vt 0.829815 0.372626
vt 0.947914 0.320042
vt 0.947914 0.320042
vt 0.829815 0.372626
vt 0.947914 0.478957
vt 0.130788 0.333008
vt 0.124759 0.162370
vt 0.136813 0.161517
vt 0.154870 0.331304
vt 0.034081 0.333008
vt 0.040111 0.162370
vt 0.010000 0.331304
vt 0.028057 0.161517
vt 0.124759 0.150286
vt 0.040111 0.150286
vt 0.758871 0.763269
vt 0.698204 0.720692
vt 0.721961 0.673614
vt 0.790156 0.701274
vt 0.833681 0.498008
vt 0.758871 0.506929
vt 0.721712 0.393440
vt 0.790041 0.364724
vt 0.832045 0.567430
vt 0.757629 0.559648
vt 0.638244 0.556836
vt 0.639486 0.504117
vt 0.869106 0.805624
vt 0.872954 0.758701
vt 0.909045 0.758701
vt 0.916546 0.805624
vt 0.826513 0.619415
vt 0.872954 0.625444
vt 0.826513 0.766429
vt 0.955930 0.766429
vt 0.909045 0.625444
vt 0.955930 0.619415
vt 0.647493 0.797119
vt 0.889753 0.815185
vt 0.888981 0.828000
vt 0.645995 0.821970
vt 0.645995 0.937091
vt 0.888981 0.931061
vt 0.889753 0.943876
vt 0.647493 0.961943
vt 0.901820 0.828000
vt 0.901820 0.931061
vt 0.842386 0.579716
vt 0.877938 0.573687
vt 0.886610 0.595939
vt 0.855896 0.614380
vt 0.842386 0.455502
vt 0.877938 0.461531
vt 0.855896 0.420838
vt 0.886610 0.439280
vt 0.901820 0.573687
vt 0.901820 0.461531
vt 0.151672 0.010000
vt 0.224284 0.020334
vt 0.220319 0.048221
vt 0.147095 0.042193
vt 0.147095 0.179941
vt 0.220319 0.173912
vt 0.224284 0.201799
vt 0.151672 0.212134
vt 0.248487 0.048221
vt 0.248486 0.173912
vt 0.621877 0.121863
vt 0.635644 0.325759
vt 0.586920 0.330815
vt 0.568417 0.127410
vt 0.742252 0.121863
vt 0.736223 0.325759
vt 0.795883 0.125386
vt 0.785102 0.328971
vt 0.915849 0.135304
vt 0.885340 0.337258
vt 0.635644 0.374744
vt 0.736223 0.374744
vt 0.559121 0.196157
vt 0.532013 0.204945
vt 0.500094 0.138692
vt 0.522275 0.119679
vt 0.273678 0.034816
vt 0.300185 0.044091
vt 0.281814 0.196157
vt 0.253657 0.200540
vt 0.383979 0.026194
vt 0.373196 0.052912
vt 0.299701 0.016012
vt 0.354825 0.204978
vt 0.523047 0.229420
vt 0.191346 0.235449
vt 0.190947 0.224481
vt 0.522210 0.206401
vt 0.523047 0.309696
vt 0.191346 0.303666
vt 0.522210 0.332715
vt 0.190947 0.314637
vt 0.180370 0.235449
vt 0.180370 0.303666
# 122 texture coordinates

vn 0.706804 0.029275 0.706804
vn 0.667887 0.328412 0.667887
vn -0.667887 0.328412 0.667887
vn -0.706804 0.029275 0.706804
vn 0.706804 0.029275 -0.706804
vn 0.667887 0.328412 -0.667887
vn -0.706804 0.029275 -0.706804
vn -0.667887 0.328412 -0.667887
vn 0.000000 1.000000 0.000000
vn 0.706225 0.049936 0.706225
vn 0.563637 0.603843 0.563637
vn 0.000000 0.719490 0.694503
vn 0.000000 0.035332 0.999376
vn 0.706225 0.049936 -0.706225
vn 0.563637 0.603843 -0.563637
vn 0.000000 0.035332 -0.999376
vn 0.000000 0.719490 -0.694503
vn 0.695555 0.159419 0.700563
vn 0.530626 0.657879 0.534446
vn -0.545137 0.636908 0.545137
vn -0.702346 0.115852 0.702345
vn 0.689850 0.239155 -0.683310
vn 0.511418 0.694146 -0.506570
vn -0.699037 0.196841 -0.687460
vn -0.525709 0.675528 -0.517003
vn -0.692740 0.173879 0.699913
vn -0.525541 0.664728 0.530983
vn -0.512635 0.688476 -0.513036
vn -0.688441 0.226616 -0.688980
vn 0.000000 0.082888 0.996559
vn 0.000000 0.735829 0.677168
vn 0.000000 0.761575 -0.648077
vn 0.000000 0.159991 -0.987118
vn -0.999692 0.024820 0.000000
vn -0.698276 0.715828 0.000000
vn -0.565767 0.600017 -0.565587
vn -0.706579 0.042556 -0.706354
vn 0.706579 0.042556 -0.706354
vn 0.565767 0.600017 -0.565587
vn 0.698276 0.715828 0.000000
vn 0.999692 0.024820 0.000000
vn 0.680263 0.261228 0.684838
vn 0.500652 0.703784 0.504019
vn 0.000000 0.765089 0.643924
vn 0.000000 0.170723 0.985319
vn 0.680263 0.261228 -0.684838
vn 0.500652 0.703784 -0.504019
vn 0.000000 0.170723 -0.985319
vn 0.000000 0.765089 -0.643924
vn 0.000000 0.082190 0.996617
vn 0.000000 0.735592 0.677425
vn -0.550129 0.629048 0.549233
vn -0.704152 0.099776 0.703005
vn -0.704151 0.099784 -0.703004
vn -0.550127 0.629053 -0.549230
vn 0.000000 0.735596 -0.677421
vn 0.000000 0.082202 -0.996616
vn -0.704643 0.073065 0.705790
vn -0.556723 0.615719 0.557629
vn -0.565968 0.598290 -0.567212
vn -0.705801 0.038700 -0.707353
vn 0.706421 0.046379 0.706271
vn 0.564681 0.602002 0.564561
vn 0.706930 0.011936 -0.707183
vn 0.573949 0.583891 -0.574154
vn 0.667404 0.287319 -0.687036
vn 0.486723 0.715584 -0.501040
vn 0.467887 0.749140 0.468905
vn 0.656598 0.368619 0.658027
vn -0.680035 0.248736 -0.689697
vn -0.502453 0.698468 -0.509592
vn -0.671206 0.332073 0.662729
vn -0.483225 0.734062 0.477123
vn -0.706873 0.025700 0.706873
vn -0.570323 0.591153 0.570323
vn -0.700651 0.713504 0.000000
vn -0.999835 0.018176 0.000000
vn 0.706873 0.025700 0.706873
vn 0.570323 0.591153 0.570323
vn 0.999835 0.018176 0.000000
vn 0.700651 0.713504 0.000000
# 81 normals

usemtl default
f 1/1/1 2/2/2 3/3/3 4/4/4
f 5/5/5 6/6/6 2/7/2 1/8/1
f 7/9/7 8/10/8 6/11/6 5/12/5
f 4/13/4 3/14/3 8/15/8 7/16/7
f 6/17/6 8/18/8 9/19/9
f 8/20/8 3/21/3 9/19/9
f 3/22/3 2/23/2 9/19/9
f 2/24/2 6/25/6 9/26/9
f 10/27/10 11/28/11 12/29/12 13/30/13
f 14/31/14 15/32/15 11/28/11 10/27/10
f 16/33/16 17/34/17 15/32/15 14/31/14
f 12/35/12 11/28/11 15/32/15 17/36/17
f 18/37/18 19/38/19 20/39/20 21/40/21
f 22/41/22 23/42/23 19/43/19 18/44/18
f 24/45/24 25/46/25 23/42/23 22/41/22
f 21/40/21 20/39/20 25/46/25 24/45/24
f 20/47/20 19/48/19 23/42/23 25/46/25
f 26/49/26 27/50/27 28/51/28 29/52/29
f 30/53/30 31/54/31 27/50/27 26/55/26
f 29/56/29 28/51/28 32/57/32 33/58/33
f 28/51/28 27/50/27 31/54/31 32/57/32
f 34/59/34 35/60/35 36/61/36 37/62/37
f 38/63/38 39/64/39 40/65/40 41/66/41
f 37/62/37 36/61/36 39/64/39 38/63/38
f 36/61/36 35/67/35 40/68/40 39/64/39
f 42/69/42 43/70/43 44/71/44 45/72/45
f 46/73/46 47/74/47 43/70/43 42/69/42
f 48/75/48 49/76/49 47/74/47 46/73/46
f 44/77/44 43/70/43 47/74/47 49/78/49
f 50/79/50 51/80/51 52/81/52 53/82/53
f 54/83/54 55/84/55 56/85/56 57/86/57
f 53/82/53 52/81/52 55/84/55 54/83/54
f 52/81/52 51/87/51 56/88/56 55/84/55
f 58/89/58 59/90/59 60/91/60 61/92/61
f 62/93/62 63/94/63 59/90/59 58/89/58
f 64/95/64 65/96/65 63/94/63 62/93/62
f 61/97/61 60/98/60 65/96/65 64/95/64
f 60/99/60 59/90/59 63/94/63 65/100/65
f 66/101/66 67/102/67 68/103/68 69/104/69
f 70/105/70 71/106/71 67/107/67 66/108/66
f 72/109/72 73/110/73 71/106/71 70/111/70
f 69/104/69 68/103/68 73/110/73 72/109/72
f 68/112/68 67/107/67 71/106/71 73/110/73
f 74/113/74 75/114/75 76/115/76 77/116/77
f 78/117/78 79/118/79 75/114/75 74/113/74
f 80/119/80 81/120/81 79/118/79 78/117/78
f 76/121/76 75/114/75 79/118/79 81/122/81

# 47 faces
